M48
;DRILL file {KiCad 4.0.7-e2-6376~58~ubuntu16.04.1} date Tue Jan 22 10:53:29 2019
;FORMAT={-:-/ absolute / inch / decimal}
FMAT,2
INCH,TZ
T1C0.031
T2C0.039
%
G90
G05
M72
T1
X3.45Y-3.15
X3.45Y-3.25
X3.45Y-3.35
X3.45Y-3.45
X3.45Y-3.55
X3.45Y-3.65
X3.45Y-3.75
X3.45Y-3.85
X3.45Y-3.95
X3.45Y-4.05
X3.555Y-2.915
X3.6Y-4.45
X3.6Y-4.85
X3.6534Y-2.915
X3.75Y-3.15
X3.75Y-3.25
X3.75Y-3.35
X3.75Y-3.45
X3.75Y-3.55
X3.75Y-3.65
X3.75Y-3.75
X3.75Y-3.85
X3.75Y-3.95
X3.75Y-4.05
X3.75Y-4.45
X3.75Y-4.85
X3.8366Y-2.44
X3.8366Y-2.625
X3.935Y-2.44
X3.935Y-2.625
X3.95Y-4.37
X3.95Y-4.47
X3.95Y-4.57
X3.95Y-4.69
X3.95Y-4.79
X3.95Y-4.89
X4.Y-3.75
X4.01Y-4.08
X4.135Y-1.84
X4.135Y-2.14
X4.135Y-2.44
X4.135Y-2.54
X4.135Y-2.64
X4.15Y-4.45
X4.15Y-4.85
X4.3Y-4.45
X4.3Y-4.85
X4.335Y-1.84
X4.335Y-2.14
X4.335Y-2.335
X4.335Y-2.735
X4.4Y-3.75
X4.41Y-4.08
X4.42Y-2.975
X4.42Y-3.375
X4.45Y-4.45
X4.45Y-4.85
X4.465Y-2.335
X4.465Y-2.735
X4.4671Y-1.7894
X4.5671Y-1.7894
X4.57Y-2.975
X4.57Y-3.375
X4.5921Y-2.05
X4.5921Y-2.15
X4.6Y-4.58
X4.6Y-4.68
X4.6Y-4.78
X4.71Y-3.985
X4.71Y-4.085
X4.71Y-4.185
X4.715Y-3.66
X4.715Y-3.76
X4.715Y-3.86
X4.77Y-2.975
X4.77Y-3.075
X4.77Y-3.175
X4.77Y-3.275
X4.785Y-2.49
X4.785Y-2.6869
X4.87Y-3.425
X4.9Y-3.75
X4.9Y-3.9
X4.9Y-4.05
X4.9Y-4.2
X4.965Y-4.445
X4.965Y-4.545
X4.9684Y-3.425
X5.07Y-2.975
X5.07Y-3.075
X5.07Y-3.175
X5.07Y-3.275
X5.115Y-4.395
X5.115Y-4.595
X5.12Y-4.775
X5.27Y-2.975
X5.27Y-3.375
X5.3Y-3.75
X5.3Y-3.9
X5.3Y-4.05
X5.3Y-4.2
X5.42Y-2.975
X5.42Y-3.375
X5.515Y-4.395
X5.515Y-4.595
X5.52Y-4.775
T2
X4.Y-2.95
X4.Y-3.05
X4.Y-3.15
X4.Y-3.25
X4.Y-3.35
X4.Y-3.45
T0
M30
