%TF.GenerationSoftware,KiCad,Pcbnew,4.0.7-e2-6376~58~ubuntu16.04.1*%
%TF.CreationDate,2019-01-22T10:52:45+01:00*%
%TF.ProjectId,nikobus,6E696B6F6275732E6B696361645F7063,rev?*%
%TF.FileFunction,Soldermask,Top*%
%FSLAX46Y46*%
G04 Gerber Fmt 4.6, Leading zero omitted, Abs format (unit mm)*
G04 Created by KiCad (PCBNEW 4.0.7-e2-6376~58~ubuntu16.04.1) date Tue Jan 22 10:52:45 2019*
%MOMM*%
%LPD*%
G01*
G04 APERTURE LIST*
%ADD10C,0.100000*%
%ADD11O,3.200000X1.600000*%
%ADD12O,1.600000X3.200000*%
G04 APERTURE END LIST*
D10*
X112268000Y-40005000D02*
X99949000Y-40005000D01*
X116713000Y-41910000D02*
X112268000Y-41910000D01*
X116840000Y-40005000D02*
X121920000Y-40005000D01*
X137737666Y-44561000D02*
G75*
G03X137737666Y-44561000I-1666666J0D01*
G01*
X133571000Y-44561000D02*
X138571000Y-44561000D01*
X136071000Y-42061000D02*
X136071000Y-47061000D01*
X82619666Y-123301000D02*
G75*
G03X82619666Y-123301000I-1666666J0D01*
G01*
X78453000Y-123301000D02*
X83453000Y-123301000D01*
X80953000Y-120801000D02*
X80953000Y-125801000D01*
X116767000Y-41894000D02*
X116767000Y-39989000D01*
X112322000Y-39989000D02*
X112322000Y-41894000D01*
X129000000Y-57000000D02*
X122000000Y-57000000D01*
X129000000Y-58000000D02*
X129000000Y-57000000D01*
X129000000Y-65000000D02*
X129000000Y-58000000D01*
X134000000Y-65000000D02*
X129000000Y-65000000D01*
X146000000Y-128000000D02*
X88000000Y-128000000D01*
X146000000Y-72000000D02*
X146000000Y-128000000D01*
X88000000Y-128000000D02*
X76000000Y-72000000D01*
X100000000Y-57000000D02*
X100000000Y-40000000D01*
X93000000Y-57000000D02*
X100000000Y-57000000D01*
X93000000Y-65000000D02*
X93000000Y-57000000D01*
X81000000Y-65000000D02*
X93000000Y-65000000D01*
X81000000Y-72000000D02*
X81000000Y-65000000D01*
X76000000Y-72000000D02*
X81000000Y-72000000D01*
X122000000Y-57000000D02*
X122000000Y-40000000D01*
X141000000Y-65000000D02*
X134000000Y-65000000D01*
X141000000Y-72000000D02*
X141000000Y-65000000D01*
X146000000Y-72000000D02*
X141000000Y-72000000D01*
D11*
X140208000Y-121285000D03*
X130048000Y-121285000D03*
D12*
X116005000Y-45450000D03*
X113465000Y-45450000D03*
X105410000Y-123190000D03*
X105410000Y-113030000D03*
D11*
X116840000Y-121412000D03*
X116840000Y-118872000D03*
X116840000Y-116332000D03*
D12*
X113030000Y-113030000D03*
X113030000Y-123190000D03*
X109220000Y-113030000D03*
X109220000Y-123190000D03*
X95250000Y-113030000D03*
X95250000Y-123190000D03*
X91440000Y-113030000D03*
X91440000Y-123190000D03*
X90297000Y-74041000D03*
X92797000Y-74041000D03*
D11*
X101600000Y-74930000D03*
X101600000Y-77470000D03*
X101600000Y-80010000D03*
X101600000Y-82550000D03*
X101600000Y-85090000D03*
X101600000Y-87630000D03*
X87630000Y-80010000D03*
X95250000Y-102870000D03*
X87630000Y-82550000D03*
X95250000Y-100330000D03*
X87630000Y-85090000D03*
X95250000Y-97790000D03*
X87630000Y-87630000D03*
X95250000Y-95250000D03*
X87630000Y-90170000D03*
X95250000Y-92710000D03*
X87630000Y-92710000D03*
X95250000Y-90170000D03*
X87630000Y-95250000D03*
X95250000Y-87630000D03*
X87630000Y-97790000D03*
X95250000Y-85090000D03*
X87630000Y-100330000D03*
X95250000Y-82550000D03*
X87630000Y-102870000D03*
X95250000Y-80010000D03*
X116640000Y-54610000D03*
X116640000Y-52070000D03*
D12*
X99949000Y-61976000D03*
X97449000Y-61976000D03*
X99949000Y-66675000D03*
X97449000Y-66675000D03*
X133858000Y-85725000D03*
X133858000Y-75565000D03*
X112268000Y-75565000D03*
X112268000Y-85725000D03*
D11*
X126111000Y-115443000D03*
X126111000Y-112903000D03*
X101600000Y-95250000D03*
X111760000Y-95250000D03*
X101854000Y-103632000D03*
X112014000Y-103632000D03*
X134620000Y-95250000D03*
X124460000Y-95250000D03*
X134620000Y-106680000D03*
X124460000Y-106680000D03*
X129921000Y-111633000D03*
X140081000Y-111633000D03*
X140081000Y-116713000D03*
X129921000Y-116713000D03*
D12*
X113411000Y-69469000D03*
X113411000Y-59309000D03*
X137668000Y-75565000D03*
X137668000Y-85725000D03*
D11*
X128778000Y-83185000D03*
X121158000Y-75565000D03*
X128778000Y-80645000D03*
X121158000Y-78105000D03*
X128778000Y-78105000D03*
X121158000Y-80645000D03*
X128778000Y-75565000D03*
X121158000Y-83185000D03*
D12*
X121539000Y-63246000D03*
X121539000Y-68246000D03*
X123698000Y-86995000D03*
X126198000Y-86995000D03*
X105029000Y-46736000D03*
X110109000Y-54356000D03*
X110109000Y-46736000D03*
X105029000Y-54356000D03*
D11*
X124460000Y-99060000D03*
X134620000Y-99060000D03*
X124460000Y-102870000D03*
X134620000Y-102870000D03*
D12*
X116078000Y-85725000D03*
X116078000Y-75565000D03*
X110109000Y-59309000D03*
X110109000Y-69469000D03*
D11*
X105029000Y-64516000D03*
X105029000Y-61976000D03*
X105029000Y-67056000D03*
X100330000Y-121666000D03*
X100330000Y-124206000D03*
X100330000Y-119126000D03*
X100330000Y-113538000D03*
X100330000Y-116078000D03*
X100330000Y-110998000D03*
X119761000Y-95504000D03*
X119761000Y-92964000D03*
X119761000Y-98044000D03*
X119634000Y-103759000D03*
X119634000Y-101219000D03*
X119634000Y-106299000D03*
M02*
