M48
INCH,TZ
T1C0.031
T2C0.039
%
G90
G05
T1
X34500Y-31500
X34500Y-32500
X34500Y-33500
X34500Y-34500
X34500Y-35500
X34500Y-36500
X34500Y-37500
X34500Y-38500
X34500Y-39500
X34500Y-40500
X35550Y-29150
X36000Y-44500
X36000Y-48500
X36534Y-29150
X37500Y-31500
X37500Y-32500
X37500Y-33500
X37500Y-34500
X37500Y-35500
X37500Y-36500
X37500Y-37500
X37500Y-38500
X37500Y-39500
X37500Y-40500
X37500Y-44500
X37500Y-48500
X38366Y-24400
X38366Y-26250
X39350Y-24400
X39350Y-26250
X39500Y-43700
X39500Y-44700
X39500Y-45700
X39500Y-46900
X39500Y-47900
X39500Y-48900
X40000Y-37500
X40100Y-40800
X41350Y-18400
X41350Y-21400
X41350Y-24400
X41350Y-25400
X41350Y-26400
X41500Y-44500
X41500Y-48500
X43000Y-44500
X43000Y-48500
X43350Y-18400
X43350Y-21400
X43350Y-23350
X43350Y-27350
X44000Y-37500
X44100Y-40800
X44200Y-29750
X44200Y-33750
X44500Y-44500
X44500Y-48500
X44650Y-23350
X44650Y-27350
X44671Y-17894
X45671Y-17894
X45700Y-29750
X45700Y-33750
X45921Y-20500
X45921Y-21500
X46000Y-45800
X46000Y-46800
X46000Y-47800
X47100Y-39850
X47100Y-40850
X47100Y-41850
X47150Y-36600
X47150Y-37600
X47150Y-38600
X47700Y-29750
X47700Y-30750
X47700Y-31750
X47700Y-32750
X47850Y-24900
X47850Y-26869
X48700Y-34250
X49000Y-37500
X49000Y-39000
X49000Y-40500
X49000Y-42000
X49650Y-44450
X49650Y-45450
X49684Y-34250
X50700Y-29750
X50700Y-30750
X50700Y-31750
X50700Y-32750
X51150Y-43950
X51150Y-45950
X51200Y-47750
X52700Y-29750
X52700Y-33750
X53000Y-37500
X53000Y-39000
X53000Y-40500
X53000Y-42000
X54200Y-29750
X54200Y-33750
X55150Y-43950
X55150Y-45950
X55200Y-47750
T2
X40000Y-29500
X40000Y-30500
X40000Y-31500
X40000Y-32500
X40000Y-33500
X40000Y-34500
T0
M30
