%TF.GenerationSoftware,KiCad,Pcbnew,4.0.7-e2-6376~58~ubuntu16.04.1*%
%TF.CreationDate,2019-01-21T22:19:49+01:00*%
%TF.ProjectId,nikobus,6E696B6F6275732E6B696361645F7063,rev?*%
%TF.FileFunction,Legend,Top*%
%FSLAX46Y46*%
G04 Gerber Fmt 4.6, Leading zero omitted, Abs format (unit mm)*
G04 Created by KiCad (PCBNEW 4.0.7-e2-6376~58~ubuntu16.04.1) date Mon Jan 21 22:19:49 2019*
%MOMM*%
%LPD*%
G01*
G04 APERTURE LIST*
%ADD10C,0.100000*%
%ADD11C,0.200000*%
%ADD12C,0.300000*%
%ADD13C,0.120000*%
%ADD14C,0.150000*%
G04 APERTURE END LIST*
D10*
X112268000Y-40005000D02*
X99949000Y-40005000D01*
X116713000Y-41910000D02*
X112268000Y-41910000D01*
X116840000Y-40005000D02*
X121920000Y-40005000D01*
D11*
X94615000Y-71628000D02*
X94615000Y-58293000D01*
X127254000Y-71628000D02*
X94615000Y-71628000D01*
X127254000Y-58420000D02*
X127254000Y-71628000D01*
X119253000Y-58420000D02*
X127254000Y-58420000D01*
X94615000Y-58293000D02*
X101600000Y-58293000D01*
X143383000Y-73025000D02*
X108839000Y-73025000D01*
X108712000Y-91440000D02*
X108712000Y-73025000D01*
X105537000Y-91440000D02*
X108712000Y-91440000D01*
X119180000Y-43735500D02*
X119180000Y-58404000D01*
X101590500Y-43735500D02*
X119180000Y-43735500D01*
X101590500Y-58404000D02*
X101590500Y-43735500D01*
D10*
X137737666Y-44561000D02*
G75*
G03X137737666Y-44561000I-1666666J0D01*
G01*
X133571000Y-44561000D02*
X138571000Y-44561000D01*
X136071000Y-42061000D02*
X136071000Y-47061000D01*
X82619666Y-123301000D02*
G75*
G03X82619666Y-123301000I-1666666J0D01*
G01*
X78453000Y-123301000D02*
X83453000Y-123301000D01*
X80953000Y-120801000D02*
X80953000Y-125801000D01*
X116767000Y-41894000D02*
X116767000Y-39989000D01*
X112322000Y-39989000D02*
X112322000Y-41894000D01*
D11*
X122698143Y-115371571D02*
X122841000Y-115419190D01*
X122888619Y-115466810D01*
X122936238Y-115562048D01*
X122936238Y-115704905D01*
X122888619Y-115800143D01*
X122841000Y-115847762D01*
X122745762Y-115895381D01*
X122364809Y-115895381D01*
X122364809Y-114895381D01*
X122698143Y-114895381D01*
X122793381Y-114943000D01*
X122841000Y-114990619D01*
X122888619Y-115085857D01*
X122888619Y-115181095D01*
X122841000Y-115276333D01*
X122793381Y-115323952D01*
X122698143Y-115371571D01*
X122364809Y-115371571D01*
X123793381Y-115228714D02*
X123793381Y-115895381D01*
X123364809Y-115228714D02*
X123364809Y-115752524D01*
X123412428Y-115847762D01*
X123507666Y-115895381D01*
X123650524Y-115895381D01*
X123745762Y-115847762D01*
X123793381Y-115800143D01*
X124221952Y-115847762D02*
X124317190Y-115895381D01*
X124507666Y-115895381D01*
X124602905Y-115847762D01*
X124650524Y-115752524D01*
X124650524Y-115704905D01*
X124602905Y-115609667D01*
X124507666Y-115562048D01*
X124364809Y-115562048D01*
X124269571Y-115514429D01*
X124221952Y-115419190D01*
X124221952Y-115371571D01*
X124269571Y-115276333D01*
X124364809Y-115228714D01*
X124507666Y-115228714D01*
X124602905Y-115276333D01*
X122793381Y-112403000D02*
X122698143Y-112355381D01*
X122555286Y-112355381D01*
X122412428Y-112403000D01*
X122317190Y-112498238D01*
X122269571Y-112593476D01*
X122221952Y-112783952D01*
X122221952Y-112926810D01*
X122269571Y-113117286D01*
X122317190Y-113212524D01*
X122412428Y-113307762D01*
X122555286Y-113355381D01*
X122650524Y-113355381D01*
X122793381Y-113307762D01*
X122841000Y-113260143D01*
X122841000Y-112926810D01*
X122650524Y-112926810D01*
X123269571Y-112688714D02*
X123269571Y-113355381D01*
X123269571Y-112783952D02*
X123317190Y-112736333D01*
X123412428Y-112688714D01*
X123555286Y-112688714D01*
X123650524Y-112736333D01*
X123698143Y-112831571D01*
X123698143Y-113355381D01*
X124602905Y-113355381D02*
X124602905Y-112355381D01*
X124602905Y-113307762D02*
X124507667Y-113355381D01*
X124317190Y-113355381D01*
X124221952Y-113307762D01*
X124174333Y-113260143D01*
X124126714Y-113164905D01*
X124126714Y-112879190D01*
X124174333Y-112783952D01*
X124221952Y-112736333D01*
X124317190Y-112688714D01*
X124507667Y-112688714D01*
X124602905Y-112736333D01*
X104632095Y-88082381D02*
X104632095Y-87082381D01*
X105203524Y-88082381D01*
X105203524Y-87082381D01*
X106108286Y-88034762D02*
X106013048Y-88082381D01*
X105822571Y-88082381D01*
X105727333Y-88034762D01*
X105679714Y-87987143D01*
X105632095Y-87891905D01*
X105632095Y-87606190D01*
X105679714Y-87510952D01*
X105727333Y-87463333D01*
X105822571Y-87415714D01*
X106013048Y-87415714D01*
X106108286Y-87463333D01*
X105021143Y-79510000D02*
X104925905Y-79462381D01*
X104783048Y-79462381D01*
X104640190Y-79510000D01*
X104544952Y-79605238D01*
X104497333Y-79700476D01*
X104449714Y-79890952D01*
X104449714Y-80033810D01*
X104497333Y-80224286D01*
X104544952Y-80319524D01*
X104640190Y-80414762D01*
X104783048Y-80462381D01*
X104878286Y-80462381D01*
X105021143Y-80414762D01*
X105068762Y-80367143D01*
X105068762Y-80033810D01*
X104878286Y-80033810D01*
X105497333Y-79795714D02*
X105497333Y-80462381D01*
X105497333Y-79890952D02*
X105544952Y-79843333D01*
X105640190Y-79795714D01*
X105783048Y-79795714D01*
X105878286Y-79843333D01*
X105925905Y-79938571D01*
X105925905Y-80462381D01*
X106830667Y-80462381D02*
X106830667Y-79462381D01*
X106830667Y-80414762D02*
X106735429Y-80462381D01*
X106544952Y-80462381D01*
X106449714Y-80414762D01*
X106402095Y-80367143D01*
X106354476Y-80271905D01*
X106354476Y-79986190D01*
X106402095Y-79890952D01*
X106449714Y-79843333D01*
X106544952Y-79795714D01*
X106735429Y-79795714D01*
X106830667Y-79843333D01*
X105203524Y-85447143D02*
X105155905Y-85494762D01*
X105013048Y-85542381D01*
X104917810Y-85542381D01*
X104774952Y-85494762D01*
X104679714Y-85399524D01*
X104632095Y-85304286D01*
X104584476Y-85113810D01*
X104584476Y-84970952D01*
X104632095Y-84780476D01*
X104679714Y-84685238D01*
X104774952Y-84590000D01*
X104917810Y-84542381D01*
X105013048Y-84542381D01*
X105155905Y-84590000D01*
X105203524Y-84637619D01*
X105774952Y-85542381D02*
X105679714Y-85494762D01*
X105632095Y-85399524D01*
X105632095Y-84542381D01*
X106155905Y-85542381D02*
X106155905Y-84542381D01*
X106251143Y-85161429D02*
X106536858Y-85542381D01*
X106536858Y-84875714D02*
X106155905Y-85256667D01*
X104632095Y-75382381D02*
X104632095Y-74382381D01*
X104965429Y-75096667D01*
X105298762Y-74382381D01*
X105298762Y-75382381D01*
X106203524Y-75334762D02*
X106108286Y-75382381D01*
X105917809Y-75382381D01*
X105822571Y-75334762D01*
X105774952Y-75287143D01*
X105727333Y-75191905D01*
X105727333Y-74906190D01*
X105774952Y-74810952D01*
X105822571Y-74763333D01*
X105917809Y-74715714D01*
X106108286Y-74715714D01*
X106203524Y-74763333D01*
X106774952Y-75382381D02*
X106679714Y-75334762D01*
X106632095Y-75239524D01*
X106632095Y-74382381D01*
X107155905Y-75382381D02*
X107155905Y-74715714D01*
X107155905Y-74906190D02*
X107203524Y-74810952D01*
X107251143Y-74763333D01*
X107346381Y-74715714D01*
X107441620Y-74715714D01*
X118967238Y-115657381D02*
X119538667Y-115657381D01*
X119252952Y-116657381D02*
X119252952Y-115657381D01*
X119776762Y-116657381D02*
X120300572Y-115990714D01*
X119776762Y-115990714D02*
X120300572Y-116657381D01*
X119760905Y-121166000D02*
X119665667Y-121118381D01*
X119522810Y-121118381D01*
X119379952Y-121166000D01*
X119284714Y-121261238D01*
X119237095Y-121356476D01*
X119189476Y-121546952D01*
X119189476Y-121689810D01*
X119237095Y-121880286D01*
X119284714Y-121975524D01*
X119379952Y-122070762D01*
X119522810Y-122118381D01*
X119618048Y-122118381D01*
X119760905Y-122070762D01*
X119808524Y-122023143D01*
X119808524Y-121689810D01*
X119618048Y-121689810D01*
X120237095Y-121451714D02*
X120237095Y-122118381D01*
X120237095Y-121546952D02*
X120284714Y-121499333D01*
X120379952Y-121451714D01*
X120522810Y-121451714D01*
X120618048Y-121499333D01*
X120665667Y-121594571D01*
X120665667Y-122118381D01*
X121570429Y-122118381D02*
X121570429Y-121118381D01*
X121570429Y-122070762D02*
X121475191Y-122118381D01*
X121284714Y-122118381D01*
X121189476Y-122070762D01*
X121141857Y-122023143D01*
X121094238Y-121927905D01*
X121094238Y-121642190D01*
X121141857Y-121546952D01*
X121189476Y-121499333D01*
X121284714Y-121451714D01*
X121475191Y-121451714D01*
X121570429Y-121499333D01*
X119808524Y-119324381D02*
X119475190Y-118848190D01*
X119237095Y-119324381D02*
X119237095Y-118324381D01*
X119618048Y-118324381D01*
X119713286Y-118372000D01*
X119760905Y-118419619D01*
X119808524Y-118514857D01*
X119808524Y-118657714D01*
X119760905Y-118752952D01*
X119713286Y-118800571D01*
X119618048Y-118848190D01*
X119237095Y-118848190D01*
X120141857Y-119324381D02*
X120665667Y-118657714D01*
X120141857Y-118657714D02*
X120665667Y-119324381D01*
X104632095Y-83002381D02*
X104632095Y-82002381D01*
X104870190Y-82002381D01*
X105013048Y-82050000D01*
X105108286Y-82145238D01*
X105155905Y-82240476D01*
X105203524Y-82430952D01*
X105203524Y-82573810D01*
X105155905Y-82764286D01*
X105108286Y-82859524D01*
X105013048Y-82954762D01*
X104870190Y-83002381D01*
X104632095Y-83002381D01*
X106060667Y-83002381D02*
X106060667Y-82478571D01*
X106013048Y-82383333D01*
X105917810Y-82335714D01*
X105727333Y-82335714D01*
X105632095Y-82383333D01*
X106060667Y-82954762D02*
X105965429Y-83002381D01*
X105727333Y-83002381D01*
X105632095Y-82954762D01*
X105584476Y-82859524D01*
X105584476Y-82764286D01*
X105632095Y-82669048D01*
X105727333Y-82621429D01*
X105965429Y-82621429D01*
X106060667Y-82573810D01*
X106394000Y-82335714D02*
X106774952Y-82335714D01*
X106536857Y-82002381D02*
X106536857Y-82859524D01*
X106584476Y-82954762D01*
X106679714Y-83002381D01*
X106774952Y-83002381D01*
X107536858Y-83002381D02*
X107536858Y-82478571D01*
X107489239Y-82383333D01*
X107394001Y-82335714D01*
X107203524Y-82335714D01*
X107108286Y-82383333D01*
X107536858Y-82954762D02*
X107441620Y-83002381D01*
X107203524Y-83002381D01*
X107108286Y-82954762D01*
X107060667Y-82859524D01*
X107060667Y-82764286D01*
X107108286Y-82669048D01*
X107203524Y-82621429D01*
X107441620Y-82621429D01*
X107536858Y-82573810D01*
X104489238Y-76922381D02*
X104822571Y-77922381D01*
X105155905Y-76922381D01*
X105917810Y-77922381D02*
X105917810Y-76922381D01*
X105917810Y-77874762D02*
X105822572Y-77922381D01*
X105632095Y-77922381D01*
X105536857Y-77874762D01*
X105489238Y-77827143D01*
X105441619Y-77731905D01*
X105441619Y-77446190D01*
X105489238Y-77350952D01*
X105536857Y-77303333D01*
X105632095Y-77255714D01*
X105822572Y-77255714D01*
X105917810Y-77303333D01*
X106822572Y-77922381D02*
X106822572Y-76922381D01*
X106822572Y-77874762D02*
X106727334Y-77922381D01*
X106536857Y-77922381D01*
X106441619Y-77874762D01*
X106394000Y-77827143D01*
X106346381Y-77731905D01*
X106346381Y-77446190D01*
X106394000Y-77350952D01*
X106441619Y-77303333D01*
X106536857Y-77255714D01*
X106727334Y-77255714D01*
X106822572Y-77303333D01*
D12*
X115911429Y-50208571D02*
X115054286Y-50208571D01*
X115482858Y-50208571D02*
X115482858Y-48708571D01*
X115340001Y-48922857D01*
X115197143Y-49065714D01*
X115054286Y-49137143D01*
X116482857Y-48851429D02*
X116554286Y-48780000D01*
X116697143Y-48708571D01*
X117054286Y-48708571D01*
X117197143Y-48780000D01*
X117268572Y-48851429D01*
X117340000Y-48994286D01*
X117340000Y-49137143D01*
X117268572Y-49351429D01*
X116411429Y-50208571D01*
X117340000Y-50208571D01*
X117768571Y-48708571D02*
X118268571Y-50208571D01*
X118768571Y-48708571D01*
X114447144Y-111168571D02*
X113947144Y-110454286D01*
X113590001Y-111168571D02*
X113590001Y-109668571D01*
X114161429Y-109668571D01*
X114304287Y-109740000D01*
X114375715Y-109811429D01*
X114447144Y-109954286D01*
X114447144Y-110168571D01*
X114375715Y-110311429D01*
X114304287Y-110382857D01*
X114161429Y-110454286D01*
X113590001Y-110454286D01*
X115018572Y-111097143D02*
X115232858Y-111168571D01*
X115590001Y-111168571D01*
X115732858Y-111097143D01*
X115804287Y-111025714D01*
X115875715Y-110882857D01*
X115875715Y-110740000D01*
X115804287Y-110597143D01*
X115732858Y-110525714D01*
X115590001Y-110454286D01*
X115304287Y-110382857D01*
X115161429Y-110311429D01*
X115090001Y-110240000D01*
X115018572Y-110097143D01*
X115018572Y-109954286D01*
X115090001Y-109811429D01*
X115161429Y-109740000D01*
X115304287Y-109668571D01*
X115661429Y-109668571D01*
X115875715Y-109740000D01*
X116447143Y-109811429D02*
X116518572Y-109740000D01*
X116661429Y-109668571D01*
X117018572Y-109668571D01*
X117161429Y-109740000D01*
X117232858Y-109811429D01*
X117304286Y-109954286D01*
X117304286Y-110097143D01*
X117232858Y-110311429D01*
X116375715Y-111168571D01*
X117304286Y-111168571D01*
X117804286Y-109668571D02*
X118732857Y-109668571D01*
X118232857Y-110240000D01*
X118447143Y-110240000D01*
X118590000Y-110311429D01*
X118661429Y-110382857D01*
X118732857Y-110525714D01*
X118732857Y-110882857D01*
X118661429Y-111025714D01*
X118590000Y-111097143D01*
X118447143Y-111168571D01*
X118018571Y-111168571D01*
X117875714Y-111097143D01*
X117804286Y-111025714D01*
X119304285Y-109811429D02*
X119375714Y-109740000D01*
X119518571Y-109668571D01*
X119875714Y-109668571D01*
X120018571Y-109740000D01*
X120090000Y-109811429D01*
X120161428Y-109954286D01*
X120161428Y-110097143D01*
X120090000Y-110311429D01*
X119232857Y-111168571D01*
X120161428Y-111168571D01*
X100421429Y-106572857D02*
X100635715Y-106644286D01*
X100707143Y-106715714D01*
X100778572Y-106858571D01*
X100778572Y-107072857D01*
X100707143Y-107215714D01*
X100635715Y-107287143D01*
X100492857Y-107358571D01*
X99921429Y-107358571D01*
X99921429Y-105858571D01*
X100421429Y-105858571D01*
X100564286Y-105930000D01*
X100635715Y-106001429D01*
X100707143Y-106144286D01*
X100707143Y-106287143D01*
X100635715Y-106430000D01*
X100564286Y-106501429D01*
X100421429Y-106572857D01*
X99921429Y-106572857D01*
X102064286Y-106358571D02*
X102064286Y-107358571D01*
X101421429Y-106358571D02*
X101421429Y-107144286D01*
X101492857Y-107287143D01*
X101635715Y-107358571D01*
X101850000Y-107358571D01*
X101992857Y-107287143D01*
X102064286Y-107215714D01*
X102707143Y-107287143D02*
X102850000Y-107358571D01*
X103135715Y-107358571D01*
X103278572Y-107287143D01*
X103350000Y-107144286D01*
X103350000Y-107072857D01*
X103278572Y-106930000D01*
X103135715Y-106858571D01*
X102921429Y-106858571D01*
X102778572Y-106787143D01*
X102707143Y-106644286D01*
X102707143Y-106572857D01*
X102778572Y-106430000D01*
X102921429Y-106358571D01*
X103135715Y-106358571D01*
X103278572Y-106430000D01*
X101175715Y-70655571D02*
X101175715Y-69155571D01*
X101747143Y-69155571D01*
X101890001Y-69227000D01*
X101961429Y-69298429D01*
X102032858Y-69441286D01*
X102032858Y-69655571D01*
X101961429Y-69798429D01*
X101890001Y-69869857D01*
X101747143Y-69941286D01*
X101175715Y-69941286D01*
X102890001Y-70655571D02*
X102747143Y-70584143D01*
X102675715Y-70512714D01*
X102604286Y-70369857D01*
X102604286Y-69941286D01*
X102675715Y-69798429D01*
X102747143Y-69727000D01*
X102890001Y-69655571D01*
X103104286Y-69655571D01*
X103247143Y-69727000D01*
X103318572Y-69798429D01*
X103390001Y-69941286D01*
X103390001Y-70369857D01*
X103318572Y-70512714D01*
X103247143Y-70584143D01*
X103104286Y-70655571D01*
X102890001Y-70655571D01*
X103890001Y-69655571D02*
X104175715Y-70655571D01*
X104461429Y-69941286D01*
X104747144Y-70655571D01*
X105032858Y-69655571D01*
X106175715Y-70584143D02*
X106032858Y-70655571D01*
X105747144Y-70655571D01*
X105604287Y-70584143D01*
X105532858Y-70441286D01*
X105532858Y-69869857D01*
X105604287Y-69727000D01*
X105747144Y-69655571D01*
X106032858Y-69655571D01*
X106175715Y-69727000D01*
X106247144Y-69869857D01*
X106247144Y-70012714D01*
X105532858Y-70155571D01*
X106890001Y-70655571D02*
X106890001Y-69655571D01*
X106890001Y-69941286D02*
X106961429Y-69798429D01*
X107032858Y-69727000D01*
X107175715Y-69655571D01*
X107318572Y-69655571D01*
D11*
X94615000Y-58420000D02*
X94615000Y-71120000D01*
X88900000Y-125730000D02*
X88900000Y-109220000D01*
X120650000Y-125730000D02*
X88900000Y-125730000D01*
X120650000Y-109220000D02*
X120650000Y-125730000D01*
X120650000Y-109220000D02*
X88900000Y-109220000D01*
X99060000Y-91440000D02*
X99060000Y-107950000D01*
X121920000Y-107950000D02*
X99060000Y-107950000D01*
X121920000Y-124460000D02*
X121920000Y-107950000D01*
X143510000Y-124460000D02*
X121920000Y-124460000D01*
X143510000Y-73025000D02*
X143510000Y-124460000D01*
X99060000Y-91440000D02*
X105410000Y-91440000D01*
D10*
X129000000Y-57000000D02*
X122000000Y-57000000D01*
X129000000Y-58000000D02*
X129000000Y-57000000D01*
X129000000Y-65000000D02*
X129000000Y-58000000D01*
X134000000Y-65000000D02*
X129000000Y-65000000D01*
X146000000Y-128000000D02*
X88000000Y-128000000D01*
X146000000Y-72000000D02*
X146000000Y-128000000D01*
X88000000Y-128000000D02*
X76000000Y-72000000D01*
X100000000Y-57000000D02*
X100000000Y-40000000D01*
X93000000Y-57000000D02*
X100000000Y-57000000D01*
X93000000Y-65000000D02*
X93000000Y-57000000D01*
X81000000Y-65000000D02*
X93000000Y-65000000D01*
X81000000Y-72000000D02*
X81000000Y-65000000D01*
X76000000Y-72000000D02*
X81000000Y-72000000D01*
X122000000Y-57000000D02*
X122000000Y-40000000D01*
X141000000Y-65000000D02*
X134000000Y-65000000D01*
X141000000Y-72000000D02*
X141000000Y-65000000D01*
X146000000Y-72000000D02*
X141000000Y-72000000D01*
D13*
X137188000Y-122345000D02*
X137188000Y-120225000D01*
X137188000Y-120225000D02*
X133068000Y-120225000D01*
X133068000Y-120225000D02*
X133068000Y-122345000D01*
X133068000Y-122345000D02*
X137188000Y-122345000D01*
X139228000Y-121285000D02*
X137188000Y-121285000D01*
X131028000Y-121285000D02*
X133068000Y-121285000D01*
X136528000Y-122345000D02*
X136528000Y-120225000D01*
X113175000Y-37840000D02*
G75*
G02X116295000Y-37840000I1560000J0D01*
G01*
X116295000Y-41700000D02*
X116295000Y-37840000D01*
X113175000Y-41700000D02*
X113175000Y-37840000D01*
X116295000Y-41700000D02*
X113175000Y-41700000D01*
X112775000Y-41700000D02*
X112775000Y-40580000D01*
X112775000Y-40580000D02*
X113175000Y-40580000D01*
X113175000Y-40580000D02*
X113175000Y-41700000D01*
X113175000Y-41700000D02*
X112775000Y-41700000D01*
X116005000Y-44370000D02*
X116005000Y-41700000D01*
X116005000Y-41700000D02*
X116005000Y-41700000D01*
X116005000Y-41700000D02*
X116005000Y-44370000D01*
X116005000Y-44370000D02*
X116005000Y-44370000D01*
X113465000Y-44370000D02*
X113465000Y-41700000D01*
X113465000Y-41700000D02*
X113465000Y-41700000D01*
X113465000Y-41700000D02*
X113465000Y-44370000D01*
X113465000Y-44370000D02*
X113465000Y-44370000D01*
X104100000Y-121320000D02*
X106720000Y-121320000D01*
X106720000Y-121320000D02*
X106720000Y-114900000D01*
X106720000Y-114900000D02*
X104100000Y-114900000D01*
X104100000Y-114900000D02*
X104100000Y-121320000D01*
X105410000Y-122210000D02*
X105410000Y-121320000D01*
X105410000Y-114010000D02*
X105410000Y-114900000D01*
X118170000Y-115002000D02*
X115510000Y-115002000D01*
X118170000Y-120142000D02*
X118170000Y-115002000D01*
X115510000Y-120142000D02*
X115510000Y-115002000D01*
X118170000Y-120142000D02*
X115510000Y-120142000D01*
X118170000Y-121412000D02*
X118170000Y-122742000D01*
X118170000Y-122742000D02*
X116840000Y-122742000D01*
X114340000Y-114900000D02*
X111720000Y-114900000D01*
X111720000Y-114900000D02*
X111720000Y-121320000D01*
X111720000Y-121320000D02*
X114340000Y-121320000D01*
X114340000Y-121320000D02*
X114340000Y-114900000D01*
X113030000Y-114010000D02*
X113030000Y-114900000D01*
X113030000Y-122210000D02*
X113030000Y-121320000D01*
X110280000Y-116050000D02*
X108160000Y-116050000D01*
X108160000Y-116050000D02*
X108160000Y-120170000D01*
X108160000Y-120170000D02*
X110280000Y-120170000D01*
X110280000Y-120170000D02*
X110280000Y-116050000D01*
X109220000Y-114010000D02*
X109220000Y-116050000D01*
X109220000Y-122210000D02*
X109220000Y-120170000D01*
X110280000Y-116710000D02*
X108160000Y-116710000D01*
X96560000Y-114900000D02*
X93940000Y-114900000D01*
X93940000Y-114900000D02*
X93940000Y-121320000D01*
X93940000Y-121320000D02*
X96560000Y-121320000D01*
X96560000Y-121320000D02*
X96560000Y-114900000D01*
X95250000Y-114010000D02*
X95250000Y-114900000D01*
X95250000Y-122210000D02*
X95250000Y-121320000D01*
X92750000Y-114900000D02*
X90130000Y-114900000D01*
X90130000Y-114900000D02*
X90130000Y-121320000D01*
X90130000Y-121320000D02*
X92750000Y-121320000D01*
X92750000Y-121320000D02*
X92750000Y-114900000D01*
X91440000Y-114010000D02*
X91440000Y-114900000D01*
X91440000Y-122210000D02*
X91440000Y-121320000D01*
X89787000Y-72931000D02*
X93307000Y-72931000D01*
X89787000Y-75151000D02*
X93307000Y-75151000D01*
X89787000Y-72931000D02*
X89787000Y-73045000D01*
X89787000Y-75037000D02*
X89787000Y-75151000D01*
X93307000Y-72931000D02*
X93307000Y-73045000D01*
X93307000Y-75037000D02*
X93307000Y-75151000D01*
X100270000Y-88960000D02*
X102930000Y-88960000D01*
X100270000Y-76200000D02*
X100270000Y-88960000D01*
X102930000Y-76200000D02*
X102930000Y-88960000D01*
X100270000Y-76200000D02*
X102930000Y-76200000D01*
X100270000Y-74930000D02*
X100270000Y-73600000D01*
X100270000Y-73600000D02*
X101600000Y-73600000D01*
X92440000Y-78680000D02*
G75*
G02X90440000Y-78680000I-1000000J0D01*
G01*
X90440000Y-78680000D02*
X88790000Y-78680000D01*
X88790000Y-78680000D02*
X88790000Y-104200000D01*
X88790000Y-104200000D02*
X94090000Y-104200000D01*
X94090000Y-104200000D02*
X94090000Y-78680000D01*
X94090000Y-78680000D02*
X92440000Y-78680000D01*
X117970000Y-50740000D02*
X115310000Y-50740000D01*
X117970000Y-53340000D02*
X117970000Y-50740000D01*
X115310000Y-53340000D02*
X115310000Y-50740000D01*
X117970000Y-53340000D02*
X115310000Y-53340000D01*
X117970000Y-54610000D02*
X117970000Y-55940000D01*
X117970000Y-55940000D02*
X116640000Y-55940000D01*
X100459000Y-63086000D02*
X96939000Y-63086000D01*
X100459000Y-60866000D02*
X96939000Y-60866000D01*
X100459000Y-63086000D02*
X100459000Y-62972000D01*
X100459000Y-60980000D02*
X100459000Y-60866000D01*
X96939000Y-63086000D02*
X96939000Y-62972000D01*
X96939000Y-60980000D02*
X96939000Y-60866000D01*
X100459000Y-67785000D02*
X96939000Y-67785000D01*
X100459000Y-65565000D02*
X96939000Y-65565000D01*
X100459000Y-67785000D02*
X100459000Y-67671000D01*
X100459000Y-65679000D02*
X100459000Y-65565000D01*
X96939000Y-67785000D02*
X96939000Y-67671000D01*
X96939000Y-65679000D02*
X96939000Y-65565000D01*
X132798000Y-82705000D02*
X134918000Y-82705000D01*
X134918000Y-82705000D02*
X134918000Y-78585000D01*
X134918000Y-78585000D02*
X132798000Y-78585000D01*
X132798000Y-78585000D02*
X132798000Y-82705000D01*
X133858000Y-84745000D02*
X133858000Y-82705000D01*
X133858000Y-76545000D02*
X133858000Y-78585000D01*
X132798000Y-82045000D02*
X134918000Y-82045000D01*
X113328000Y-78585000D02*
X111208000Y-78585000D01*
X111208000Y-78585000D02*
X111208000Y-82705000D01*
X111208000Y-82705000D02*
X113328000Y-82705000D01*
X113328000Y-82705000D02*
X113328000Y-78585000D01*
X112268000Y-76545000D02*
X112268000Y-78585000D01*
X112268000Y-84745000D02*
X112268000Y-82705000D01*
X113328000Y-79245000D02*
X111208000Y-79245000D01*
X127441000Y-111573000D02*
X124781000Y-111573000D01*
X127441000Y-114173000D02*
X127441000Y-111573000D01*
X124781000Y-114173000D02*
X124781000Y-111573000D01*
X127441000Y-114173000D02*
X124781000Y-114173000D01*
X127441000Y-115443000D02*
X127441000Y-116773000D01*
X127441000Y-116773000D02*
X126111000Y-116773000D01*
X103470000Y-93940000D02*
X103470000Y-96560000D01*
X103470000Y-96560000D02*
X109890000Y-96560000D01*
X109890000Y-96560000D02*
X109890000Y-93940000D01*
X109890000Y-93940000D02*
X103470000Y-93940000D01*
X102580000Y-95250000D02*
X103470000Y-95250000D01*
X110780000Y-95250000D02*
X109890000Y-95250000D01*
X103724000Y-102322000D02*
X103724000Y-104942000D01*
X103724000Y-104942000D02*
X110144000Y-104942000D01*
X110144000Y-104942000D02*
X110144000Y-102322000D01*
X110144000Y-102322000D02*
X103724000Y-102322000D01*
X102834000Y-103632000D02*
X103724000Y-103632000D01*
X111034000Y-103632000D02*
X110144000Y-103632000D01*
X132750000Y-96560000D02*
X132750000Y-93940000D01*
X132750000Y-93940000D02*
X126330000Y-93940000D01*
X126330000Y-93940000D02*
X126330000Y-96560000D01*
X126330000Y-96560000D02*
X132750000Y-96560000D01*
X133640000Y-95250000D02*
X132750000Y-95250000D01*
X125440000Y-95250000D02*
X126330000Y-95250000D01*
X132750000Y-107990000D02*
X132750000Y-105370000D01*
X132750000Y-105370000D02*
X126330000Y-105370000D01*
X126330000Y-105370000D02*
X126330000Y-107990000D01*
X126330000Y-107990000D02*
X132750000Y-107990000D01*
X133640000Y-106680000D02*
X132750000Y-106680000D01*
X125440000Y-106680000D02*
X126330000Y-106680000D01*
X131791000Y-110323000D02*
X131791000Y-112943000D01*
X131791000Y-112943000D02*
X138211000Y-112943000D01*
X138211000Y-112943000D02*
X138211000Y-110323000D01*
X138211000Y-110323000D02*
X131791000Y-110323000D01*
X130901000Y-111633000D02*
X131791000Y-111633000D01*
X139101000Y-111633000D02*
X138211000Y-111633000D01*
X138211000Y-118023000D02*
X138211000Y-115403000D01*
X138211000Y-115403000D02*
X131791000Y-115403000D01*
X131791000Y-115403000D02*
X131791000Y-118023000D01*
X131791000Y-118023000D02*
X138211000Y-118023000D01*
X139101000Y-116713000D02*
X138211000Y-116713000D01*
X130901000Y-116713000D02*
X131791000Y-116713000D01*
X112101000Y-67599000D02*
X114721000Y-67599000D01*
X114721000Y-67599000D02*
X114721000Y-61179000D01*
X114721000Y-61179000D02*
X112101000Y-61179000D01*
X112101000Y-61179000D02*
X112101000Y-67599000D01*
X113411000Y-68489000D02*
X113411000Y-67599000D01*
X113411000Y-60289000D02*
X113411000Y-61179000D01*
X138978000Y-77435000D02*
X136358000Y-77435000D01*
X136358000Y-77435000D02*
X136358000Y-83855000D01*
X136358000Y-83855000D02*
X138978000Y-83855000D01*
X138978000Y-83855000D02*
X138978000Y-77435000D01*
X137668000Y-76545000D02*
X137668000Y-77435000D01*
X137668000Y-84745000D02*
X137668000Y-83855000D01*
X123968000Y-84515000D02*
G75*
G02X125968000Y-84515000I1000000J0D01*
G01*
X125968000Y-84515000D02*
X127618000Y-84515000D01*
X127618000Y-84515000D02*
X127618000Y-74235000D01*
X127618000Y-74235000D02*
X122318000Y-74235000D01*
X122318000Y-74235000D02*
X122318000Y-84515000D01*
X122318000Y-84515000D02*
X123968000Y-84515000D01*
X122922264Y-70644437D02*
G75*
G03X122919000Y-60846643I-1383264J4898437D01*
G01*
X120155736Y-70644437D02*
G75*
G02X120159000Y-60846643I1383264J4898437D01*
G01*
X120155736Y-70644437D02*
G75*
G03X122919000Y-70645357I1383264J4898437D01*
G01*
X126589000Y-65746000D02*
X116489000Y-65746000D01*
X126589000Y-65786000D02*
X116489000Y-65786000D01*
X126589000Y-65826000D02*
X116489000Y-65826000D01*
X126588000Y-65866000D02*
X116490000Y-65866000D01*
X126587000Y-65906000D02*
X116491000Y-65906000D01*
X126586000Y-65946000D02*
X116492000Y-65946000D01*
X126584000Y-65986000D02*
X116494000Y-65986000D01*
X126582000Y-66026000D02*
X116496000Y-66026000D01*
X126579000Y-66066000D02*
X116499000Y-66066000D01*
X126577000Y-66106000D02*
X116501000Y-66106000D01*
X126574000Y-66146000D02*
X116504000Y-66146000D01*
X126570000Y-66186000D02*
X116508000Y-66186000D01*
X126567000Y-66226000D02*
X116511000Y-66226000D01*
X126563000Y-66266000D02*
X116515000Y-66266000D01*
X126559000Y-66306000D02*
X116519000Y-66306000D01*
X126554000Y-66346000D02*
X116524000Y-66346000D01*
X126549000Y-66386000D02*
X116529000Y-66386000D01*
X126544000Y-66426000D02*
X116534000Y-66426000D01*
X126538000Y-66467000D02*
X116540000Y-66467000D01*
X126532000Y-66507000D02*
X116546000Y-66507000D01*
X126526000Y-66547000D02*
X116552000Y-66547000D01*
X126520000Y-66587000D02*
X116558000Y-66587000D01*
X126513000Y-66627000D02*
X116565000Y-66627000D01*
X126506000Y-66667000D02*
X116572000Y-66667000D01*
X126498000Y-66707000D02*
X116580000Y-66707000D01*
X126490000Y-66747000D02*
X116588000Y-66747000D01*
X126482000Y-66787000D02*
X116596000Y-66787000D01*
X126474000Y-66827000D02*
X116604000Y-66827000D01*
X126465000Y-66867000D02*
X116613000Y-66867000D01*
X126456000Y-66907000D02*
X116622000Y-66907000D01*
X126446000Y-66947000D02*
X116632000Y-66947000D01*
X126436000Y-66987000D02*
X116642000Y-66987000D01*
X126426000Y-67027000D02*
X116652000Y-67027000D01*
X126415000Y-67067000D02*
X122720000Y-67067000D01*
X120358000Y-67067000D02*
X116663000Y-67067000D01*
X126404000Y-67107000D02*
X122720000Y-67107000D01*
X120358000Y-67107000D02*
X116674000Y-67107000D01*
X126393000Y-67147000D02*
X122720000Y-67147000D01*
X120358000Y-67147000D02*
X116685000Y-67147000D01*
X126382000Y-67187000D02*
X122720000Y-67187000D01*
X120358000Y-67187000D02*
X116696000Y-67187000D01*
X126370000Y-67227000D02*
X122720000Y-67227000D01*
X120358000Y-67227000D02*
X116708000Y-67227000D01*
X126357000Y-67267000D02*
X122720000Y-67267000D01*
X120358000Y-67267000D02*
X116721000Y-67267000D01*
X126345000Y-67307000D02*
X122720000Y-67307000D01*
X120358000Y-67307000D02*
X116733000Y-67307000D01*
X126331000Y-67347000D02*
X122720000Y-67347000D01*
X120358000Y-67347000D02*
X116747000Y-67347000D01*
X126318000Y-67387000D02*
X122720000Y-67387000D01*
X120358000Y-67387000D02*
X116760000Y-67387000D01*
X126304000Y-67427000D02*
X122720000Y-67427000D01*
X120358000Y-67427000D02*
X116774000Y-67427000D01*
X126290000Y-67467000D02*
X122720000Y-67467000D01*
X120358000Y-67467000D02*
X116788000Y-67467000D01*
X126276000Y-67507000D02*
X122720000Y-67507000D01*
X120358000Y-67507000D02*
X116802000Y-67507000D01*
X126261000Y-67547000D02*
X122720000Y-67547000D01*
X120358000Y-67547000D02*
X116817000Y-67547000D01*
X126245000Y-67587000D02*
X122720000Y-67587000D01*
X120358000Y-67587000D02*
X116833000Y-67587000D01*
X126230000Y-67627000D02*
X122720000Y-67627000D01*
X120358000Y-67627000D02*
X116848000Y-67627000D01*
X126213000Y-67667000D02*
X122720000Y-67667000D01*
X120358000Y-67667000D02*
X116865000Y-67667000D01*
X126197000Y-67707000D02*
X122720000Y-67707000D01*
X120358000Y-67707000D02*
X116881000Y-67707000D01*
X126180000Y-67747000D02*
X122720000Y-67747000D01*
X120358000Y-67747000D02*
X116898000Y-67747000D01*
X126163000Y-67787000D02*
X122720000Y-67787000D01*
X120358000Y-67787000D02*
X116915000Y-67787000D01*
X126145000Y-67827000D02*
X122720000Y-67827000D01*
X120358000Y-67827000D02*
X116933000Y-67827000D01*
X126127000Y-67867000D02*
X122720000Y-67867000D01*
X120358000Y-67867000D02*
X116951000Y-67867000D01*
X126108000Y-67907000D02*
X122720000Y-67907000D01*
X120358000Y-67907000D02*
X116970000Y-67907000D01*
X126089000Y-67947000D02*
X122720000Y-67947000D01*
X120358000Y-67947000D02*
X116989000Y-67947000D01*
X126070000Y-67987000D02*
X122720000Y-67987000D01*
X120358000Y-67987000D02*
X117008000Y-67987000D01*
X126050000Y-68027000D02*
X122720000Y-68027000D01*
X120358000Y-68027000D02*
X117028000Y-68027000D01*
X126030000Y-68067000D02*
X122720000Y-68067000D01*
X120358000Y-68067000D02*
X117048000Y-68067000D01*
X126009000Y-68107000D02*
X122720000Y-68107000D01*
X120358000Y-68107000D02*
X117069000Y-68107000D01*
X125988000Y-68147000D02*
X122720000Y-68147000D01*
X120358000Y-68147000D02*
X117090000Y-68147000D01*
X125967000Y-68187000D02*
X122720000Y-68187000D01*
X120358000Y-68187000D02*
X117111000Y-68187000D01*
X125944000Y-68227000D02*
X122720000Y-68227000D01*
X120358000Y-68227000D02*
X117134000Y-68227000D01*
X125922000Y-68267000D02*
X122720000Y-68267000D01*
X120358000Y-68267000D02*
X117156000Y-68267000D01*
X125899000Y-68307000D02*
X122720000Y-68307000D01*
X120358000Y-68307000D02*
X117179000Y-68307000D01*
X125875000Y-68347000D02*
X122720000Y-68347000D01*
X120358000Y-68347000D02*
X117203000Y-68347000D01*
X125851000Y-68387000D02*
X122720000Y-68387000D01*
X120358000Y-68387000D02*
X117227000Y-68387000D01*
X125827000Y-68427000D02*
X122720000Y-68427000D01*
X120358000Y-68427000D02*
X117251000Y-68427000D01*
X125802000Y-68467000D02*
X122720000Y-68467000D01*
X120358000Y-68467000D02*
X117276000Y-68467000D01*
X125776000Y-68507000D02*
X122720000Y-68507000D01*
X120358000Y-68507000D02*
X117302000Y-68507000D01*
X125750000Y-68547000D02*
X122720000Y-68547000D01*
X120358000Y-68547000D02*
X117328000Y-68547000D01*
X125724000Y-68587000D02*
X122720000Y-68587000D01*
X120358000Y-68587000D02*
X117354000Y-68587000D01*
X125696000Y-68627000D02*
X122720000Y-68627000D01*
X120358000Y-68627000D02*
X117382000Y-68627000D01*
X125669000Y-68667000D02*
X122720000Y-68667000D01*
X120358000Y-68667000D02*
X117409000Y-68667000D01*
X125640000Y-68707000D02*
X122720000Y-68707000D01*
X120358000Y-68707000D02*
X117438000Y-68707000D01*
X125611000Y-68747000D02*
X122720000Y-68747000D01*
X120358000Y-68747000D02*
X117467000Y-68747000D01*
X125582000Y-68787000D02*
X122720000Y-68787000D01*
X120358000Y-68787000D02*
X117496000Y-68787000D01*
X125552000Y-68827000D02*
X122720000Y-68827000D01*
X120358000Y-68827000D02*
X117526000Y-68827000D01*
X125521000Y-68867000D02*
X122720000Y-68867000D01*
X120358000Y-68867000D02*
X117557000Y-68867000D01*
X125490000Y-68907000D02*
X122720000Y-68907000D01*
X120358000Y-68907000D02*
X117588000Y-68907000D01*
X125458000Y-68947000D02*
X122720000Y-68947000D01*
X120358000Y-68947000D02*
X117620000Y-68947000D01*
X125425000Y-68987000D02*
X122720000Y-68987000D01*
X120358000Y-68987000D02*
X117653000Y-68987000D01*
X125392000Y-69027000D02*
X122720000Y-69027000D01*
X120358000Y-69027000D02*
X117686000Y-69027000D01*
X125358000Y-69067000D02*
X122720000Y-69067000D01*
X120358000Y-69067000D02*
X117720000Y-69067000D01*
X125323000Y-69107000D02*
X122720000Y-69107000D01*
X120358000Y-69107000D02*
X117755000Y-69107000D01*
X125287000Y-69147000D02*
X122720000Y-69147000D01*
X120358000Y-69147000D02*
X117791000Y-69147000D01*
X125251000Y-69187000D02*
X122720000Y-69187000D01*
X120358000Y-69187000D02*
X117827000Y-69187000D01*
X125214000Y-69227000D02*
X122720000Y-69227000D01*
X120358000Y-69227000D02*
X117864000Y-69227000D01*
X125176000Y-69267000D02*
X122720000Y-69267000D01*
X120358000Y-69267000D02*
X117902000Y-69267000D01*
X125137000Y-69307000D02*
X122720000Y-69307000D01*
X120358000Y-69307000D02*
X117941000Y-69307000D01*
X125098000Y-69347000D02*
X122720000Y-69347000D01*
X120358000Y-69347000D02*
X117980000Y-69347000D01*
X125057000Y-69387000D02*
X122720000Y-69387000D01*
X120358000Y-69387000D02*
X118021000Y-69387000D01*
X125016000Y-69427000D02*
X118062000Y-69427000D01*
X124974000Y-69467000D02*
X118104000Y-69467000D01*
X124930000Y-69507000D02*
X118148000Y-69507000D01*
X124886000Y-69547000D02*
X118192000Y-69547000D01*
X124841000Y-69587000D02*
X118237000Y-69587000D01*
X124794000Y-69627000D02*
X118284000Y-69627000D01*
X124746000Y-69667000D02*
X118332000Y-69667000D01*
X124697000Y-69707000D02*
X118381000Y-69707000D01*
X124647000Y-69747000D02*
X118431000Y-69747000D01*
X124596000Y-69787000D02*
X118482000Y-69787000D01*
X124543000Y-69827000D02*
X118535000Y-69827000D01*
X124488000Y-69867000D02*
X118590000Y-69867000D01*
X124433000Y-69907000D02*
X118645000Y-69907000D01*
X124375000Y-69947000D02*
X118703000Y-69947000D01*
X124316000Y-69987000D02*
X118762000Y-69987000D01*
X124254000Y-70027000D02*
X118824000Y-70027000D01*
X124191000Y-70067000D02*
X118887000Y-70067000D01*
X124126000Y-70107000D02*
X118952000Y-70107000D01*
X124058000Y-70147000D02*
X119020000Y-70147000D01*
X123988000Y-70187000D02*
X119090000Y-70187000D01*
X123916000Y-70227000D02*
X119162000Y-70227000D01*
X123840000Y-70267000D02*
X119238000Y-70267000D01*
X123761000Y-70307000D02*
X119317000Y-70307000D01*
X123679000Y-70347000D02*
X119399000Y-70347000D01*
X123592000Y-70387000D02*
X119486000Y-70387000D01*
X123501000Y-70427000D02*
X119577000Y-70427000D01*
X123405000Y-70467000D02*
X119673000Y-70467000D01*
X123302000Y-70507000D02*
X119776000Y-70507000D01*
X123193000Y-70547000D02*
X119885000Y-70547000D01*
X123075000Y-70587000D02*
X120003000Y-70587000D01*
X122946000Y-70627000D02*
X120132000Y-70627000D01*
X122804000Y-70667000D02*
X120274000Y-70667000D01*
X122643000Y-70707000D02*
X120435000Y-70707000D01*
X122452000Y-70747000D02*
X120626000Y-70747000D01*
X122211000Y-70787000D02*
X120867000Y-70787000D01*
X121818000Y-70827000D02*
X121260000Y-70827000D01*
X121539000Y-60546000D02*
X121539000Y-62046000D01*
X122289000Y-61296000D02*
X120789000Y-61296000D01*
X123188000Y-85885000D02*
X126708000Y-85885000D01*
X123188000Y-88105000D02*
X126708000Y-88105000D01*
X123188000Y-85885000D02*
X123188000Y-85999000D01*
X123188000Y-87991000D02*
X123188000Y-88105000D01*
X126708000Y-85885000D02*
X126708000Y-85999000D01*
X126708000Y-87991000D02*
X126708000Y-88105000D01*
X103129000Y-47776000D02*
X103129000Y-49546000D01*
X111729000Y-47776000D02*
X103129000Y-47776000D01*
X111729000Y-53316000D02*
X111729000Y-47776000D01*
X103129000Y-53316000D02*
X111729000Y-53316000D01*
X103129000Y-51546000D02*
X103129000Y-53316000D01*
X103129000Y-49546000D02*
G75*
G02X103129000Y-51546000I0J-1000000D01*
G01*
X127480000Y-98000000D02*
X127480000Y-100120000D01*
X127480000Y-100120000D02*
X131600000Y-100120000D01*
X131600000Y-100120000D02*
X131600000Y-98000000D01*
X131600000Y-98000000D02*
X127480000Y-98000000D01*
X125440000Y-99060000D02*
X127480000Y-99060000D01*
X133640000Y-99060000D02*
X131600000Y-99060000D01*
X128140000Y-98000000D02*
X128140000Y-100120000D01*
X127480000Y-101810000D02*
X127480000Y-103930000D01*
X127480000Y-103930000D02*
X131600000Y-103930000D01*
X131600000Y-103930000D02*
X131600000Y-101810000D01*
X131600000Y-101810000D02*
X127480000Y-101810000D01*
X125440000Y-102870000D02*
X127480000Y-102870000D01*
X133640000Y-102870000D02*
X131600000Y-102870000D01*
X128140000Y-101810000D02*
X128140000Y-103930000D01*
X114768000Y-83855000D02*
X117388000Y-83855000D01*
X117388000Y-83855000D02*
X117388000Y-77435000D01*
X117388000Y-77435000D02*
X114768000Y-77435000D01*
X114768000Y-77435000D02*
X114768000Y-83855000D01*
X116078000Y-84745000D02*
X116078000Y-83855000D01*
X116078000Y-76545000D02*
X116078000Y-77435000D01*
X111169000Y-62329000D02*
X109049000Y-62329000D01*
X109049000Y-62329000D02*
X109049000Y-66449000D01*
X109049000Y-66449000D02*
X111169000Y-66449000D01*
X111169000Y-66449000D02*
X111169000Y-62329000D01*
X110109000Y-60289000D02*
X110109000Y-62329000D01*
X110109000Y-68489000D02*
X110109000Y-66449000D01*
X111169000Y-62989000D02*
X109049000Y-62989000D01*
X106879000Y-66316000D02*
X106879000Y-62716000D01*
X106151795Y-66840184D02*
G75*
G03X106879000Y-66316000I-1122795J2324184D01*
G01*
X103930193Y-66872400D02*
G75*
G02X102429000Y-64516000I1098807J2356400D01*
G01*
X103930193Y-62159600D02*
G75*
G03X102429000Y-64516000I1098807J-2356400D01*
G01*
X106151795Y-62191816D02*
G75*
G02X106879000Y-62716000I-1122795J-2324184D01*
G01*
X98480000Y-119866000D02*
X98480000Y-123466000D01*
X99207205Y-119341816D02*
G75*
G03X98480000Y-119866000I1122795J-2324184D01*
G01*
X101428807Y-119309600D02*
G75*
G02X102930000Y-121666000I-1098807J-2356400D01*
G01*
X101428807Y-124022400D02*
G75*
G03X102930000Y-121666000I-1098807J2356400D01*
G01*
X99207205Y-123990184D02*
G75*
G02X98480000Y-123466000I1122795J2324184D01*
G01*
X98480000Y-111738000D02*
X98480000Y-115338000D01*
X99207205Y-111213816D02*
G75*
G03X98480000Y-111738000I1122795J-2324184D01*
G01*
X101428807Y-111181600D02*
G75*
G02X102930000Y-113538000I-1098807J-2356400D01*
G01*
X101428807Y-115894400D02*
G75*
G03X102930000Y-113538000I-1098807J2356400D01*
G01*
X99207205Y-115862184D02*
G75*
G02X98480000Y-115338000I1122795J2324184D01*
G01*
X121611000Y-97304000D02*
X121611000Y-93704000D01*
X120883795Y-97828184D02*
G75*
G03X121611000Y-97304000I-1122795J2324184D01*
G01*
X118662193Y-97860400D02*
G75*
G02X117161000Y-95504000I1098807J2356400D01*
G01*
X118662193Y-93147600D02*
G75*
G03X117161000Y-95504000I1098807J-2356400D01*
G01*
X120883795Y-93179816D02*
G75*
G02X121611000Y-93704000I-1122795J-2324184D01*
G01*
X121484000Y-105559000D02*
X121484000Y-101959000D01*
X120756795Y-106083184D02*
G75*
G03X121484000Y-105559000I-1122795J2324184D01*
G01*
X118535193Y-106115400D02*
G75*
G02X117034000Y-103759000I1098807J2356400D01*
G01*
X118535193Y-101402600D02*
G75*
G03X117034000Y-103759000I1098807J-2356400D01*
G01*
X120756795Y-101434816D02*
G75*
G02X121484000Y-101959000I-1122795J-2324184D01*
G01*
D14*
X134389905Y-123797381D02*
X134389905Y-122797381D01*
X134628000Y-122797381D01*
X134770858Y-122845000D01*
X134866096Y-122940238D01*
X134913715Y-123035476D01*
X134961334Y-123225952D01*
X134961334Y-123368810D01*
X134913715Y-123559286D01*
X134866096Y-123654524D01*
X134770858Y-123749762D01*
X134628000Y-123797381D01*
X134389905Y-123797381D01*
X135437524Y-123797381D02*
X135628000Y-123797381D01*
X135723239Y-123749762D01*
X135770858Y-123702143D01*
X135866096Y-123559286D01*
X135913715Y-123368810D01*
X135913715Y-122987857D01*
X135866096Y-122892619D01*
X135818477Y-122845000D01*
X135723239Y-122797381D01*
X135532762Y-122797381D01*
X135437524Y-122845000D01*
X135389905Y-122892619D01*
X135342286Y-122987857D01*
X135342286Y-123225952D01*
X135389905Y-123321190D01*
X135437524Y-123368810D01*
X135532762Y-123416429D01*
X135723239Y-123416429D01*
X135818477Y-123368810D01*
X135866096Y-123321190D01*
X135913715Y-123225952D01*
X113996905Y-47862381D02*
X113996905Y-46862381D01*
X114235000Y-46862381D01*
X114377858Y-46910000D01*
X114473096Y-47005238D01*
X114520715Y-47100476D01*
X114568334Y-47290952D01*
X114568334Y-47433810D01*
X114520715Y-47624286D01*
X114473096Y-47719524D01*
X114377858Y-47814762D01*
X114235000Y-47862381D01*
X113996905Y-47862381D01*
X115473096Y-46862381D02*
X114996905Y-46862381D01*
X114949286Y-47338571D01*
X114996905Y-47290952D01*
X115092143Y-47243333D01*
X115330239Y-47243333D01*
X115425477Y-47290952D01*
X115473096Y-47338571D01*
X115520715Y-47433810D01*
X115520715Y-47671905D01*
X115473096Y-47767143D01*
X115425477Y-47814762D01*
X115330239Y-47862381D01*
X115092143Y-47862381D01*
X114996905Y-47814762D01*
X114949286Y-47767143D01*
X103552381Y-118276666D02*
X103076190Y-118610000D01*
X103552381Y-118848095D02*
X102552381Y-118848095D01*
X102552381Y-118467142D01*
X102600000Y-118371904D01*
X102647619Y-118324285D01*
X102742857Y-118276666D01*
X102885714Y-118276666D01*
X102980952Y-118324285D01*
X103028571Y-118371904D01*
X103076190Y-118467142D01*
X103076190Y-118848095D01*
X102552381Y-117943333D02*
X102552381Y-117324285D01*
X102933333Y-117657619D01*
X102933333Y-117514761D01*
X102980952Y-117419523D01*
X103028571Y-117371904D01*
X103123810Y-117324285D01*
X103361905Y-117324285D01*
X103457143Y-117371904D01*
X103504762Y-117419523D01*
X103552381Y-117514761D01*
X103552381Y-117800476D01*
X103504762Y-117895714D01*
X103457143Y-117943333D01*
X116506667Y-123194381D02*
X116506667Y-123908667D01*
X116459047Y-124051524D01*
X116363809Y-124146762D01*
X116220952Y-124194381D01*
X116125714Y-124194381D01*
X116935238Y-123289619D02*
X116982857Y-123242000D01*
X117078095Y-123194381D01*
X117316191Y-123194381D01*
X117411429Y-123242000D01*
X117459048Y-123289619D01*
X117506667Y-123384857D01*
X117506667Y-123480095D01*
X117459048Y-123622952D01*
X116887619Y-124194381D01*
X117506667Y-124194381D01*
X115792381Y-118276666D02*
X115316190Y-118610000D01*
X115792381Y-118848095D02*
X114792381Y-118848095D01*
X114792381Y-118467142D01*
X114840000Y-118371904D01*
X114887619Y-118324285D01*
X114982857Y-118276666D01*
X115125714Y-118276666D01*
X115220952Y-118324285D01*
X115268571Y-118371904D01*
X115316190Y-118467142D01*
X115316190Y-118848095D01*
X115125714Y-117419523D02*
X115792381Y-117419523D01*
X114744762Y-117657619D02*
X115459048Y-117895714D01*
X115459048Y-117276666D01*
X111732381Y-118848095D02*
X110732381Y-118848095D01*
X110732381Y-118610000D01*
X110780000Y-118467142D01*
X110875238Y-118371904D01*
X110970476Y-118324285D01*
X111160952Y-118276666D01*
X111303810Y-118276666D01*
X111494286Y-118324285D01*
X111589524Y-118371904D01*
X111684762Y-118467142D01*
X111732381Y-118610000D01*
X111732381Y-118848095D01*
X111732381Y-117324285D02*
X111732381Y-117895714D01*
X111732381Y-117610000D02*
X110732381Y-117610000D01*
X110875238Y-117705238D01*
X110970476Y-117800476D01*
X111018095Y-117895714D01*
X98012381Y-118276666D02*
X97536190Y-118610000D01*
X98012381Y-118848095D02*
X97012381Y-118848095D01*
X97012381Y-118467142D01*
X97060000Y-118371904D01*
X97107619Y-118324285D01*
X97202857Y-118276666D01*
X97345714Y-118276666D01*
X97440952Y-118324285D01*
X97488571Y-118371904D01*
X97536190Y-118467142D01*
X97536190Y-118848095D01*
X97107619Y-117895714D02*
X97060000Y-117848095D01*
X97012381Y-117752857D01*
X97012381Y-117514761D01*
X97060000Y-117419523D01*
X97107619Y-117371904D01*
X97202857Y-117324285D01*
X97298095Y-117324285D01*
X97440952Y-117371904D01*
X98012381Y-117943333D01*
X98012381Y-117324285D01*
X94202381Y-118276666D02*
X93726190Y-118610000D01*
X94202381Y-118848095D02*
X93202381Y-118848095D01*
X93202381Y-118467142D01*
X93250000Y-118371904D01*
X93297619Y-118324285D01*
X93392857Y-118276666D01*
X93535714Y-118276666D01*
X93630952Y-118324285D01*
X93678571Y-118371904D01*
X93726190Y-118467142D01*
X93726190Y-118848095D01*
X94202381Y-117324285D02*
X94202381Y-117895714D01*
X94202381Y-117610000D02*
X93202381Y-117610000D01*
X93345238Y-117705238D01*
X93440476Y-117800476D01*
X93488095Y-117895714D01*
X91380334Y-72038143D02*
X91332715Y-72085762D01*
X91189858Y-72133381D01*
X91094620Y-72133381D01*
X90951762Y-72085762D01*
X90856524Y-71990524D01*
X90808905Y-71895286D01*
X90761286Y-71704810D01*
X90761286Y-71561952D01*
X90808905Y-71371476D01*
X90856524Y-71276238D01*
X90951762Y-71181000D01*
X91094620Y-71133381D01*
X91189858Y-71133381D01*
X91332715Y-71181000D01*
X91380334Y-71228619D01*
X92332715Y-72133381D02*
X91761286Y-72133381D01*
X92047000Y-72133381D02*
X92047000Y-71133381D01*
X91951762Y-71276238D01*
X91856524Y-71371476D01*
X91761286Y-71419095D01*
X101266667Y-72052381D02*
X101266667Y-72766667D01*
X101219047Y-72909524D01*
X101123809Y-73004762D01*
X100980952Y-73052381D01*
X100885714Y-73052381D01*
X102266667Y-73052381D02*
X101695238Y-73052381D01*
X101980952Y-73052381D02*
X101980952Y-72052381D01*
X101885714Y-72195238D01*
X101790476Y-72290476D01*
X101695238Y-72338095D01*
X90678095Y-77132381D02*
X90678095Y-77941905D01*
X90725714Y-78037143D01*
X90773333Y-78084762D01*
X90868571Y-78132381D01*
X91059048Y-78132381D01*
X91154286Y-78084762D01*
X91201905Y-78037143D01*
X91249524Y-77941905D01*
X91249524Y-77132381D01*
X92249524Y-78132381D02*
X91678095Y-78132381D01*
X91963809Y-78132381D02*
X91963809Y-77132381D01*
X91868571Y-77275238D01*
X91773333Y-77370476D01*
X91678095Y-77418095D01*
X116306667Y-56392381D02*
X116306667Y-57106667D01*
X116259047Y-57249524D01*
X116163809Y-57344762D01*
X116020952Y-57392381D01*
X115925714Y-57392381D01*
X116687619Y-56392381D02*
X117306667Y-56392381D01*
X116973333Y-56773333D01*
X117116191Y-56773333D01*
X117211429Y-56820952D01*
X117259048Y-56868571D01*
X117306667Y-56963810D01*
X117306667Y-57201905D01*
X117259048Y-57297143D01*
X117211429Y-57344762D01*
X117116191Y-57392381D01*
X116830476Y-57392381D01*
X116735238Y-57344762D01*
X116687619Y-57297143D01*
X98532334Y-63603143D02*
X98484715Y-63650762D01*
X98341858Y-63698381D01*
X98246620Y-63698381D01*
X98103762Y-63650762D01*
X98008524Y-63555524D01*
X97960905Y-63460286D01*
X97913286Y-63269810D01*
X97913286Y-63126952D01*
X97960905Y-62936476D01*
X98008524Y-62841238D01*
X98103762Y-62746000D01*
X98246620Y-62698381D01*
X98341858Y-62698381D01*
X98484715Y-62746000D01*
X98532334Y-62793619D01*
X98865667Y-62698381D02*
X99484715Y-62698381D01*
X99151381Y-63079333D01*
X99294239Y-63079333D01*
X99389477Y-63126952D01*
X99437096Y-63174571D01*
X99484715Y-63269810D01*
X99484715Y-63507905D01*
X99437096Y-63603143D01*
X99389477Y-63650762D01*
X99294239Y-63698381D01*
X99008524Y-63698381D01*
X98913286Y-63650762D01*
X98865667Y-63603143D01*
X98512334Y-68302143D02*
X98464715Y-68349762D01*
X98321858Y-68397381D01*
X98226620Y-68397381D01*
X98083762Y-68349762D01*
X97988524Y-68254524D01*
X97940905Y-68159286D01*
X97893286Y-67968810D01*
X97893286Y-67825952D01*
X97940905Y-67635476D01*
X97988524Y-67540238D01*
X98083762Y-67445000D01*
X98226620Y-67397381D01*
X98321858Y-67397381D01*
X98464715Y-67445000D01*
X98512334Y-67492619D01*
X99369477Y-67730714D02*
X99369477Y-68397381D01*
X99131381Y-67349762D02*
X98893286Y-68064048D01*
X99512334Y-68064048D01*
X134310381Y-81383095D02*
X133310381Y-81383095D01*
X133310381Y-81145000D01*
X133358000Y-81002142D01*
X133453238Y-80906904D01*
X133548476Y-80859285D01*
X133738952Y-80811666D01*
X133881810Y-80811666D01*
X134072286Y-80859285D01*
X134167524Y-80906904D01*
X134262762Y-81002142D01*
X134310381Y-81145000D01*
X134310381Y-81383095D01*
X133310381Y-79954523D02*
X133310381Y-80145000D01*
X133358000Y-80240238D01*
X133405619Y-80287857D01*
X133548476Y-80383095D01*
X133738952Y-80430714D01*
X134119905Y-80430714D01*
X134215143Y-80383095D01*
X134262762Y-80335476D01*
X134310381Y-80240238D01*
X134310381Y-80049761D01*
X134262762Y-79954523D01*
X134215143Y-79906904D01*
X134119905Y-79859285D01*
X133881810Y-79859285D01*
X133786571Y-79906904D01*
X133738952Y-79954523D01*
X133691333Y-80049761D01*
X133691333Y-80240238D01*
X133738952Y-80335476D01*
X133786571Y-80383095D01*
X133881810Y-80430714D01*
X112720381Y-81383095D02*
X111720381Y-81383095D01*
X111720381Y-81145000D01*
X111768000Y-81002142D01*
X111863238Y-80906904D01*
X111958476Y-80859285D01*
X112148952Y-80811666D01*
X112291810Y-80811666D01*
X112482286Y-80859285D01*
X112577524Y-80906904D01*
X112672762Y-81002142D01*
X112720381Y-81145000D01*
X112720381Y-81383095D01*
X111720381Y-80478333D02*
X111720381Y-79811666D01*
X112720381Y-80240238D01*
X125777667Y-117225381D02*
X125777667Y-117939667D01*
X125730047Y-118082524D01*
X125634809Y-118177762D01*
X125491952Y-118225381D01*
X125396714Y-118225381D01*
X126682429Y-117558714D02*
X126682429Y-118225381D01*
X126444333Y-117177762D02*
X126206238Y-117892048D01*
X126825286Y-117892048D01*
X106513334Y-95702381D02*
X106180000Y-95226190D01*
X105941905Y-95702381D02*
X105941905Y-94702381D01*
X106322858Y-94702381D01*
X106418096Y-94750000D01*
X106465715Y-94797619D01*
X106513334Y-94892857D01*
X106513334Y-95035714D01*
X106465715Y-95130952D01*
X106418096Y-95178571D01*
X106322858Y-95226190D01*
X105941905Y-95226190D01*
X107418096Y-94702381D02*
X106941905Y-94702381D01*
X106894286Y-95178571D01*
X106941905Y-95130952D01*
X107037143Y-95083333D01*
X107275239Y-95083333D01*
X107370477Y-95130952D01*
X107418096Y-95178571D01*
X107465715Y-95273810D01*
X107465715Y-95511905D01*
X107418096Y-95607143D01*
X107370477Y-95654762D01*
X107275239Y-95702381D01*
X107037143Y-95702381D01*
X106941905Y-95654762D01*
X106894286Y-95607143D01*
X106767334Y-104084381D02*
X106434000Y-103608190D01*
X106195905Y-104084381D02*
X106195905Y-103084381D01*
X106576858Y-103084381D01*
X106672096Y-103132000D01*
X106719715Y-103179619D01*
X106767334Y-103274857D01*
X106767334Y-103417714D01*
X106719715Y-103512952D01*
X106672096Y-103560571D01*
X106576858Y-103608190D01*
X106195905Y-103608190D01*
X107624477Y-103084381D02*
X107434000Y-103084381D01*
X107338762Y-103132000D01*
X107291143Y-103179619D01*
X107195905Y-103322476D01*
X107148286Y-103512952D01*
X107148286Y-103893905D01*
X107195905Y-103989143D01*
X107243524Y-104036762D01*
X107338762Y-104084381D01*
X107529239Y-104084381D01*
X107624477Y-104036762D01*
X107672096Y-103989143D01*
X107719715Y-103893905D01*
X107719715Y-103655810D01*
X107672096Y-103560571D01*
X107624477Y-103512952D01*
X107529239Y-103465333D01*
X107338762Y-103465333D01*
X107243524Y-103512952D01*
X107195905Y-103560571D01*
X107148286Y-103655810D01*
X129373334Y-95702381D02*
X129040000Y-95226190D01*
X128801905Y-95702381D02*
X128801905Y-94702381D01*
X129182858Y-94702381D01*
X129278096Y-94750000D01*
X129325715Y-94797619D01*
X129373334Y-94892857D01*
X129373334Y-95035714D01*
X129325715Y-95130952D01*
X129278096Y-95178571D01*
X129182858Y-95226190D01*
X128801905Y-95226190D01*
X129706667Y-94702381D02*
X130373334Y-94702381D01*
X129944762Y-95702381D01*
X129373334Y-107132381D02*
X129040000Y-106656190D01*
X128801905Y-107132381D02*
X128801905Y-106132381D01*
X129182858Y-106132381D01*
X129278096Y-106180000D01*
X129325715Y-106227619D01*
X129373334Y-106322857D01*
X129373334Y-106465714D01*
X129325715Y-106560952D01*
X129278096Y-106608571D01*
X129182858Y-106656190D01*
X128801905Y-106656190D01*
X129944762Y-106560952D02*
X129849524Y-106513333D01*
X129801905Y-106465714D01*
X129754286Y-106370476D01*
X129754286Y-106322857D01*
X129801905Y-106227619D01*
X129849524Y-106180000D01*
X129944762Y-106132381D01*
X130135239Y-106132381D01*
X130230477Y-106180000D01*
X130278096Y-106227619D01*
X130325715Y-106322857D01*
X130325715Y-106370476D01*
X130278096Y-106465714D01*
X130230477Y-106513333D01*
X130135239Y-106560952D01*
X129944762Y-106560952D01*
X129849524Y-106608571D01*
X129801905Y-106656190D01*
X129754286Y-106751429D01*
X129754286Y-106941905D01*
X129801905Y-107037143D01*
X129849524Y-107084762D01*
X129944762Y-107132381D01*
X130135239Y-107132381D01*
X130230477Y-107084762D01*
X130278096Y-107037143D01*
X130325715Y-106941905D01*
X130325715Y-106751429D01*
X130278096Y-106656190D01*
X130230477Y-106608571D01*
X130135239Y-106560952D01*
X134834334Y-112085381D02*
X134501000Y-111609190D01*
X134262905Y-112085381D02*
X134262905Y-111085381D01*
X134643858Y-111085381D01*
X134739096Y-111133000D01*
X134786715Y-111180619D01*
X134834334Y-111275857D01*
X134834334Y-111418714D01*
X134786715Y-111513952D01*
X134739096Y-111561571D01*
X134643858Y-111609190D01*
X134262905Y-111609190D01*
X135310524Y-112085381D02*
X135501000Y-112085381D01*
X135596239Y-112037762D01*
X135643858Y-111990143D01*
X135739096Y-111847286D01*
X135786715Y-111656810D01*
X135786715Y-111275857D01*
X135739096Y-111180619D01*
X135691477Y-111133000D01*
X135596239Y-111085381D01*
X135405762Y-111085381D01*
X135310524Y-111133000D01*
X135262905Y-111180619D01*
X135215286Y-111275857D01*
X135215286Y-111513952D01*
X135262905Y-111609190D01*
X135310524Y-111656810D01*
X135405762Y-111704429D01*
X135596239Y-111704429D01*
X135691477Y-111656810D01*
X135739096Y-111609190D01*
X135786715Y-111513952D01*
X134358143Y-117165381D02*
X134024809Y-116689190D01*
X133786714Y-117165381D02*
X133786714Y-116165381D01*
X134167667Y-116165381D01*
X134262905Y-116213000D01*
X134310524Y-116260619D01*
X134358143Y-116355857D01*
X134358143Y-116498714D01*
X134310524Y-116593952D01*
X134262905Y-116641571D01*
X134167667Y-116689190D01*
X133786714Y-116689190D01*
X135310524Y-117165381D02*
X134739095Y-117165381D01*
X135024809Y-117165381D02*
X135024809Y-116165381D01*
X134929571Y-116308238D01*
X134834333Y-116403476D01*
X134739095Y-116451095D01*
X135929571Y-116165381D02*
X136024810Y-116165381D01*
X136120048Y-116213000D01*
X136167667Y-116260619D01*
X136215286Y-116355857D01*
X136262905Y-116546333D01*
X136262905Y-116784429D01*
X136215286Y-116974905D01*
X136167667Y-117070143D01*
X136120048Y-117117762D01*
X136024810Y-117165381D01*
X135929571Y-117165381D01*
X135834333Y-117117762D01*
X135786714Y-117070143D01*
X135739095Y-116974905D01*
X135691476Y-116784429D01*
X135691476Y-116546333D01*
X135739095Y-116355857D01*
X135786714Y-116260619D01*
X135834333Y-116213000D01*
X135929571Y-116165381D01*
X113863381Y-65031857D02*
X113387190Y-65365191D01*
X113863381Y-65603286D02*
X112863381Y-65603286D01*
X112863381Y-65222333D01*
X112911000Y-65127095D01*
X112958619Y-65079476D01*
X113053857Y-65031857D01*
X113196714Y-65031857D01*
X113291952Y-65079476D01*
X113339571Y-65127095D01*
X113387190Y-65222333D01*
X113387190Y-65603286D01*
X113863381Y-64079476D02*
X113863381Y-64650905D01*
X113863381Y-64365191D02*
X112863381Y-64365191D01*
X113006238Y-64460429D01*
X113101476Y-64555667D01*
X113149095Y-64650905D01*
X113863381Y-63127095D02*
X113863381Y-63698524D01*
X113863381Y-63412810D02*
X112863381Y-63412810D01*
X113006238Y-63508048D01*
X113101476Y-63603286D01*
X113149095Y-63698524D01*
X138120381Y-81287857D02*
X137644190Y-81621191D01*
X138120381Y-81859286D02*
X137120381Y-81859286D01*
X137120381Y-81478333D01*
X137168000Y-81383095D01*
X137215619Y-81335476D01*
X137310857Y-81287857D01*
X137453714Y-81287857D01*
X137548952Y-81335476D01*
X137596571Y-81383095D01*
X137644190Y-81478333D01*
X137644190Y-81859286D01*
X138120381Y-80335476D02*
X138120381Y-80906905D01*
X138120381Y-80621191D02*
X137120381Y-80621191D01*
X137263238Y-80716429D01*
X137358476Y-80811667D01*
X137406095Y-80906905D01*
X137215619Y-79954524D02*
X137168000Y-79906905D01*
X137120381Y-79811667D01*
X137120381Y-79573571D01*
X137168000Y-79478333D01*
X137215619Y-79430714D01*
X137310857Y-79383095D01*
X137406095Y-79383095D01*
X137548952Y-79430714D01*
X138120381Y-80002143D01*
X138120381Y-79383095D01*
X124206095Y-84967381D02*
X124206095Y-85776905D01*
X124253714Y-85872143D01*
X124301333Y-85919762D01*
X124396571Y-85967381D01*
X124587048Y-85967381D01*
X124682286Y-85919762D01*
X124729905Y-85872143D01*
X124777524Y-85776905D01*
X124777524Y-84967381D01*
X125158476Y-84967381D02*
X125777524Y-84967381D01*
X125444190Y-85348333D01*
X125587048Y-85348333D01*
X125682286Y-85395952D01*
X125729905Y-85443571D01*
X125777524Y-85538810D01*
X125777524Y-85776905D01*
X125729905Y-85872143D01*
X125682286Y-85919762D01*
X125587048Y-85967381D01*
X125301333Y-85967381D01*
X125206095Y-85919762D01*
X125158476Y-85872143D01*
X128206143Y-65912666D02*
X128253762Y-65960285D01*
X128301381Y-66103142D01*
X128301381Y-66198380D01*
X128253762Y-66341238D01*
X128158524Y-66436476D01*
X128063286Y-66484095D01*
X127872810Y-66531714D01*
X127729952Y-66531714D01*
X127539476Y-66484095D01*
X127444238Y-66436476D01*
X127349000Y-66341238D01*
X127301381Y-66198380D01*
X127301381Y-66103142D01*
X127349000Y-65960285D01*
X127396619Y-65912666D01*
X127396619Y-65531714D02*
X127349000Y-65484095D01*
X127301381Y-65388857D01*
X127301381Y-65150761D01*
X127349000Y-65055523D01*
X127396619Y-65007904D01*
X127491857Y-64960285D01*
X127587095Y-64960285D01*
X127729952Y-65007904D01*
X128301381Y-65579333D01*
X128301381Y-64960285D01*
X124781334Y-84992143D02*
X124733715Y-85039762D01*
X124590858Y-85087381D01*
X124495620Y-85087381D01*
X124352762Y-85039762D01*
X124257524Y-84944524D01*
X124209905Y-84849286D01*
X124162286Y-84658810D01*
X124162286Y-84515952D01*
X124209905Y-84325476D01*
X124257524Y-84230238D01*
X124352762Y-84135000D01*
X124495620Y-84087381D01*
X124590858Y-84087381D01*
X124733715Y-84135000D01*
X124781334Y-84182619D01*
X125686096Y-84087381D02*
X125209905Y-84087381D01*
X125162286Y-84563571D01*
X125209905Y-84515952D01*
X125305143Y-84468333D01*
X125543239Y-84468333D01*
X125638477Y-84515952D01*
X125686096Y-84563571D01*
X125733715Y-84658810D01*
X125733715Y-84896905D01*
X125686096Y-84992143D01*
X125638477Y-85039762D01*
X125543239Y-85087381D01*
X125305143Y-85087381D01*
X125209905Y-85039762D01*
X125162286Y-84992143D01*
X102781381Y-51294095D02*
X101781381Y-51294095D01*
X101781381Y-51056000D01*
X101829000Y-50913142D01*
X101924238Y-50817904D01*
X102019476Y-50770285D01*
X102209952Y-50722666D01*
X102352810Y-50722666D01*
X102543286Y-50770285D01*
X102638524Y-50817904D01*
X102733762Y-50913142D01*
X102781381Y-51056000D01*
X102781381Y-51294095D01*
X101876619Y-50341714D02*
X101829000Y-50294095D01*
X101781381Y-50198857D01*
X101781381Y-49960761D01*
X101829000Y-49865523D01*
X101876619Y-49817904D01*
X101971857Y-49770285D01*
X102067095Y-49770285D01*
X102209952Y-49817904D01*
X102781381Y-50389333D01*
X102781381Y-49770285D01*
X128801905Y-99512381D02*
X128801905Y-98512381D01*
X129040000Y-98512381D01*
X129182858Y-98560000D01*
X129278096Y-98655238D01*
X129325715Y-98750476D01*
X129373334Y-98940952D01*
X129373334Y-99083810D01*
X129325715Y-99274286D01*
X129278096Y-99369524D01*
X129182858Y-99464762D01*
X129040000Y-99512381D01*
X128801905Y-99512381D01*
X129706667Y-98512381D02*
X130325715Y-98512381D01*
X129992381Y-98893333D01*
X130135239Y-98893333D01*
X130230477Y-98940952D01*
X130278096Y-98988571D01*
X130325715Y-99083810D01*
X130325715Y-99321905D01*
X130278096Y-99417143D01*
X130230477Y-99464762D01*
X130135239Y-99512381D01*
X129849524Y-99512381D01*
X129754286Y-99464762D01*
X129706667Y-99417143D01*
X128801905Y-103322381D02*
X128801905Y-102322381D01*
X129040000Y-102322381D01*
X129182858Y-102370000D01*
X129278096Y-102465238D01*
X129325715Y-102560476D01*
X129373334Y-102750952D01*
X129373334Y-102893810D01*
X129325715Y-103084286D01*
X129278096Y-103179524D01*
X129182858Y-103274762D01*
X129040000Y-103322381D01*
X128801905Y-103322381D01*
X130230477Y-102655714D02*
X130230477Y-103322381D01*
X129992381Y-102274762D02*
X129754286Y-102989048D01*
X130373334Y-102989048D01*
X116530381Y-81287857D02*
X116054190Y-81621191D01*
X116530381Y-81859286D02*
X115530381Y-81859286D01*
X115530381Y-81478333D01*
X115578000Y-81383095D01*
X115625619Y-81335476D01*
X115720857Y-81287857D01*
X115863714Y-81287857D01*
X115958952Y-81335476D01*
X116006571Y-81383095D01*
X116054190Y-81478333D01*
X116054190Y-81859286D01*
X116530381Y-80335476D02*
X116530381Y-80906905D01*
X116530381Y-80621191D02*
X115530381Y-80621191D01*
X115673238Y-80716429D01*
X115768476Y-80811667D01*
X115816095Y-80906905D01*
X115530381Y-80002143D02*
X115530381Y-79383095D01*
X115911333Y-79716429D01*
X115911333Y-79573571D01*
X115958952Y-79478333D01*
X116006571Y-79430714D01*
X116101810Y-79383095D01*
X116339905Y-79383095D01*
X116435143Y-79430714D01*
X116482762Y-79478333D01*
X116530381Y-79573571D01*
X116530381Y-79859286D01*
X116482762Y-79954524D01*
X116435143Y-80002143D01*
X112621381Y-65127095D02*
X111621381Y-65127095D01*
X111621381Y-64889000D01*
X111669000Y-64746142D01*
X111764238Y-64650904D01*
X111859476Y-64603285D01*
X112049952Y-64555666D01*
X112192810Y-64555666D01*
X112383286Y-64603285D01*
X112478524Y-64650904D01*
X112573762Y-64746142D01*
X112621381Y-64889000D01*
X112621381Y-65127095D01*
X112049952Y-63984238D02*
X112002333Y-64079476D01*
X111954714Y-64127095D01*
X111859476Y-64174714D01*
X111811857Y-64174714D01*
X111716619Y-64127095D01*
X111669000Y-64079476D01*
X111621381Y-63984238D01*
X111621381Y-63793761D01*
X111669000Y-63698523D01*
X111716619Y-63650904D01*
X111811857Y-63603285D01*
X111859476Y-63603285D01*
X111954714Y-63650904D01*
X112002333Y-63698523D01*
X112049952Y-63793761D01*
X112049952Y-63984238D01*
X112097571Y-64079476D01*
X112145190Y-64127095D01*
X112240429Y-64174714D01*
X112430905Y-64174714D01*
X112526143Y-64127095D01*
X112573762Y-64079476D01*
X112621381Y-63984238D01*
X112621381Y-63793761D01*
X112573762Y-63698523D01*
X112526143Y-63650904D01*
X112430905Y-63603285D01*
X112240429Y-63603285D01*
X112145190Y-63650904D01*
X112097571Y-63698523D01*
X112049952Y-63793761D01*
X100921381Y-65277905D02*
X101730905Y-65277905D01*
X101826143Y-65230286D01*
X101873762Y-65182667D01*
X101921381Y-65087429D01*
X101921381Y-64896952D01*
X101873762Y-64801714D01*
X101826143Y-64754095D01*
X101730905Y-64706476D01*
X100921381Y-64706476D01*
X101016619Y-64277905D02*
X100969000Y-64230286D01*
X100921381Y-64135048D01*
X100921381Y-63896952D01*
X100969000Y-63801714D01*
X101016619Y-63754095D01*
X101111857Y-63706476D01*
X101207095Y-63706476D01*
X101349952Y-63754095D01*
X101921381Y-64325524D01*
X101921381Y-63706476D01*
X104437619Y-121761238D02*
X104390000Y-121856476D01*
X104294762Y-121951714D01*
X104151905Y-122094571D01*
X104104286Y-122189810D01*
X104104286Y-122285048D01*
X104342381Y-122237429D02*
X104294762Y-122332667D01*
X104199524Y-122427905D01*
X104009048Y-122475524D01*
X103675714Y-122475524D01*
X103485238Y-122427905D01*
X103390000Y-122332667D01*
X103342381Y-122237429D01*
X103342381Y-122046952D01*
X103390000Y-121951714D01*
X103485238Y-121856476D01*
X103675714Y-121808857D01*
X104009048Y-121808857D01*
X104199524Y-121856476D01*
X104294762Y-121951714D01*
X104342381Y-122046952D01*
X104342381Y-122237429D01*
X104342381Y-120856476D02*
X104342381Y-121427905D01*
X104342381Y-121142191D02*
X103342381Y-121142191D01*
X103485238Y-121237429D01*
X103580476Y-121332667D01*
X103628095Y-121427905D01*
X104437619Y-113633238D02*
X104390000Y-113728476D01*
X104294762Y-113823714D01*
X104151905Y-113966571D01*
X104104286Y-114061810D01*
X104104286Y-114157048D01*
X104342381Y-114109429D02*
X104294762Y-114204667D01*
X104199524Y-114299905D01*
X104009048Y-114347524D01*
X103675714Y-114347524D01*
X103485238Y-114299905D01*
X103390000Y-114204667D01*
X103342381Y-114109429D01*
X103342381Y-113918952D01*
X103390000Y-113823714D01*
X103485238Y-113728476D01*
X103675714Y-113680857D01*
X104009048Y-113680857D01*
X104199524Y-113728476D01*
X104294762Y-113823714D01*
X104342381Y-113918952D01*
X104342381Y-114109429D01*
X103437619Y-113299905D02*
X103390000Y-113252286D01*
X103342381Y-113157048D01*
X103342381Y-112918952D01*
X103390000Y-112823714D01*
X103437619Y-112776095D01*
X103532857Y-112728476D01*
X103628095Y-112728476D01*
X103770952Y-112776095D01*
X104342381Y-113347524D01*
X104342381Y-112728476D01*
X116748619Y-95599238D02*
X116701000Y-95694476D01*
X116605762Y-95789714D01*
X116462905Y-95932571D01*
X116415286Y-96027810D01*
X116415286Y-96123048D01*
X116653381Y-96075429D02*
X116605762Y-96170667D01*
X116510524Y-96265905D01*
X116320048Y-96313524D01*
X115986714Y-96313524D01*
X115796238Y-96265905D01*
X115701000Y-96170667D01*
X115653381Y-96075429D01*
X115653381Y-95884952D01*
X115701000Y-95789714D01*
X115796238Y-95694476D01*
X115986714Y-95646857D01*
X116320048Y-95646857D01*
X116510524Y-95694476D01*
X116605762Y-95789714D01*
X116653381Y-95884952D01*
X116653381Y-96075429D01*
X115653381Y-95313524D02*
X115653381Y-94694476D01*
X116034333Y-95027810D01*
X116034333Y-94884952D01*
X116081952Y-94789714D01*
X116129571Y-94742095D01*
X116224810Y-94694476D01*
X116462905Y-94694476D01*
X116558143Y-94742095D01*
X116605762Y-94789714D01*
X116653381Y-94884952D01*
X116653381Y-95170667D01*
X116605762Y-95265905D01*
X116558143Y-95313524D01*
X116621619Y-103854238D02*
X116574000Y-103949476D01*
X116478762Y-104044714D01*
X116335905Y-104187571D01*
X116288286Y-104282810D01*
X116288286Y-104378048D01*
X116526381Y-104330429D02*
X116478762Y-104425667D01*
X116383524Y-104520905D01*
X116193048Y-104568524D01*
X115859714Y-104568524D01*
X115669238Y-104520905D01*
X115574000Y-104425667D01*
X115526381Y-104330429D01*
X115526381Y-104139952D01*
X115574000Y-104044714D01*
X115669238Y-103949476D01*
X115859714Y-103901857D01*
X116193048Y-103901857D01*
X116383524Y-103949476D01*
X116478762Y-104044714D01*
X116526381Y-104139952D01*
X116526381Y-104330429D01*
X115859714Y-103044714D02*
X116526381Y-103044714D01*
X115478762Y-103282810D02*
X116193048Y-103520905D01*
X116193048Y-102901857D01*
M02*
