%TF.GenerationSoftware,KiCad,Pcbnew,4.0.7-e2-6376~58~ubuntu16.04.1*%
%TF.CreationDate,2019-01-22T10:52:45+01:00*%
%TF.ProjectId,nikobus,6E696B6F6275732E6B696361645F7063,rev?*%
%TF.FileFunction,Legend,Bot*%
%FSLAX46Y46*%
G04 Gerber Fmt 4.6, Leading zero omitted, Abs format (unit mm)*
G04 Created by KiCad (PCBNEW 4.0.7-e2-6376~58~ubuntu16.04.1) date Tue Jan 22 10:52:45 2019*
%MOMM*%
%LPD*%
G01*
G04 APERTURE LIST*
%ADD10C,0.100000*%
G04 APERTURE END LIST*
D10*
X112268000Y-40005000D02*
X99949000Y-40005000D01*
X116713000Y-41910000D02*
X112268000Y-41910000D01*
X116840000Y-40005000D02*
X121920000Y-40005000D01*
X137737666Y-44561000D02*
G75*
G03X137737666Y-44561000I-1666666J0D01*
G01*
X133571000Y-44561000D02*
X138571000Y-44561000D01*
X136071000Y-42061000D02*
X136071000Y-47061000D01*
X82619666Y-123301000D02*
G75*
G03X82619666Y-123301000I-1666666J0D01*
G01*
X78453000Y-123301000D02*
X83453000Y-123301000D01*
X80953000Y-120801000D02*
X80953000Y-125801000D01*
X116767000Y-41894000D02*
X116767000Y-39989000D01*
X112322000Y-39989000D02*
X112322000Y-41894000D01*
X129000000Y-57000000D02*
X122000000Y-57000000D01*
X129000000Y-58000000D02*
X129000000Y-57000000D01*
X129000000Y-65000000D02*
X129000000Y-58000000D01*
X134000000Y-65000000D02*
X129000000Y-65000000D01*
X146000000Y-128000000D02*
X88000000Y-128000000D01*
X146000000Y-72000000D02*
X146000000Y-128000000D01*
X88000000Y-128000000D02*
X76000000Y-72000000D01*
X100000000Y-57000000D02*
X100000000Y-40000000D01*
X93000000Y-57000000D02*
X100000000Y-57000000D01*
X93000000Y-65000000D02*
X93000000Y-57000000D01*
X81000000Y-65000000D02*
X93000000Y-65000000D01*
X81000000Y-72000000D02*
X81000000Y-65000000D01*
X76000000Y-72000000D02*
X81000000Y-72000000D01*
X122000000Y-57000000D02*
X122000000Y-40000000D01*
X141000000Y-65000000D02*
X134000000Y-65000000D01*
X141000000Y-72000000D02*
X141000000Y-65000000D01*
X146000000Y-72000000D02*
X141000000Y-72000000D01*
M02*
